<?xml version="1.0" standalone="no"?>
<!DOCTYPE svg PUBLIC "-//W3C//DTD SVG 20010904//EN"
 "http://www.w3.org/TR/2001/REC-SVG-20010904/DTD/svg10.dtd">
<svg version="1.0" xmlns="http://www.w3.org/2000/svg"
 width="301.000000pt" height="286.000000pt" viewBox="0 0 301.000000 286.000000"
 preserveAspectRatio="xMidYMid meet">

<g transform="translate(0.000000,286.000000) scale(0.100000,-0.100000)"
fill="#000000" stroke="none">
<path d="M637 2778 c-16 -12 -17 -98 -17 -1306 l0 -1292 -285 0 c-273 0 -286
-1 -305 -20 -16 -16 -18 -25 -10 -40 10 -18 26 -19 333 -22 177 -2 817 -1
1422 2 l1100 5 3 27 c3 22 -2 30 -23 38 -17 6 -405 10 -1091 10 l-1064 0 0
973 0 972 293 293 292 292 423 0 422 0 0 -293 c0 -316 2 -332 51 -325 l24 3 3
338 2 337 -26 10 c-41 16 -1526 13 -1547 -2z m533 -71 c0 -1 -106 -108 -235
-237 l-235 -235 0 238 0 237 235 0 c129 0 235 -1 235 -3z"/>
</g>
</svg>
