<?xml version="1.0" standalone="no"?>
<!DOCTYPE svg PUBLIC "-//W3C//DTD SVG 20010904//EN"
 "http://www.w3.org/TR/2001/REC-SVG-20010904/DTD/svg10.dtd">
<svg version="1.0" xmlns="http://www.w3.org/2000/svg"
 width="301.000000pt" height="286.000000pt" viewBox="0 0 301.000000 286.000000"
 preserveAspectRatio="xMidYMid meet">

<g transform="translate(0.000000,286.000000) scale(0.100000,-0.100000)"
fill="#000000" stroke="none">
<path d="M637 2778 c-16 -12 -17 -98 -17 -1306 l0 -1292 -285 0 c-273 0 -286
-1 -305 -20 -16 -16 -18 -25 -10 -40 10 -18 26 -19 333 -22 177 -2 817 -1
1422 2 l1100 5 3 27 c3 22 -2 30 -23 38 -17 6 -405 10 -1091 10 l-1064 0 0
973 0 972 293 293 292 292 423 0 422 0 0 -114 0 -113 -37 -7 c-61 -9 -154 -59
-202 -107 -119 -119 -146 -318 -64 -465 50 -89 148 -164 242 -186 l51 -11 0
-76 0 -76 -195 -195 c-201 -201 -219 -227 -174 -251 19 -10 37 5 195 162 l174
173 0 -280 c0 -302 3 -319 51 -312 l24 3 3 426 2 426 43 7 c103 16 219 106
273 213 27 54 29 66 29 168 0 102 -2 114 -29 168 -52 103 -147 180 -255 208
l-51 13 0 143 0 143 -26 10 c-41 16 -1526 13 -1547 -2z m533 -71 c0 -1 -106
-108 -235 -237 l-235 -235 0 238 0 237 235 0 c129 0 235 -1 235 -3z m1130
-335 c144 -75 206 -230 154 -385 -24 -72 -110 -157 -182 -181 -73 -25 -181
-19 -242 12 -107 56 -162 143 -168 264 -4 67 -1 84 23 135 34 75 76 119 150
155 54 26 68 29 140 26 60 -2 91 -9 125 -26z"/>
</g>
</svg>
